<svg xmlns="http://www.w3.org/2000/svg" viewBox="0 0 32 32">
  <!-- The lay mark, cropped to a square. Not a filled rounded rectangle with a stroke in it. -->
  <rect width="32" height="32" fill="#f2ece0"/>
  <g fill="none" stroke="#1d1913" stroke-width="2.4" stroke-linecap="round">
    <path d="M2 16c1.6 3.2 4 4.3 6.5 4.3S13.4 19.2 15 16s4-4.3 6.5-4.3S26.4 12.8 28 16"/>
    <path d="M2 22c1.6-3.2 4-4.3 6.5-4.3S13.4 18.8 15 22s4 4.3 6.5 4.3S26.4 25.2 28 22" opacity=".6"/>
    <path d="M2 10c1.6-3.2 4-4.3 6.5-4.3S13.4 6.8 15 10s4 4.3 6.5 4.3S26.4 13.2 28 10" opacity=".6"/>
  </g>
</svg>
